<svg version="1.2" xmlns="http://www.w3.org/2000/svg" viewBox="0 0 453 501" width="453" height="501">
	<title>fox hound-ai</title>
	<style>
		.s0 { fill: #1e130c;stroke: #000000;stroke-width: 2 } 
		.s1 { fill: #faa930;stroke: #211915;stroke-width: 2 } 
		.s2 { fill: #1e0f0e;stroke: #211915;stroke-width: 2 } 
	</style>
	<g id="Camada 2">
		<path id="&lt;Path&gt;" class="s0" d="m406.3 255.8c0 104.4-81.8 189-182.8 189-101 0-182.8-84.6-182.8-189 0-104.4 81.8-189 182.8-189 101 0 182.8 84.6 182.8 189z"/>
	</g>
	<g id="Camada 1">
		<g id="Camada 2">
			<path id="&lt;Path&gt;" class="s1" d="m183.7 308l28 130.7h-3.7l-30-90-10.7 7-40.6-90.4-3.4-26c0 0-3.3-21 1.4-21.3 4.6-0.3-18 17.3-18 17.3l-13-10.3-6.7 17.3c0 0-4.3 8.4-5.3 8.4-1 0-5.7 0-5.7 0l-7 19.3-4 1.3 4.7-60.3 11.3-17 1 10.3 16-10.3-3.7-21.3-9.6 11.3-1-30.3 5.6-6.7 11.4 19.3 3.3 18c0 0 17-1 18.3 0.4 1.4 1.3 18 14.6 22.4 3.3 4.3-11.3 0.6-14 0.6-14 0 0 110-155.7 162-1.3 15.7 17.3 37.7 17 37.7 17 0 0 29.7 33 28.3 53-29.3-41.4-63.6-49.7-63.6-49.7l-0.7 44-7.7 32c0 0 9 30.7 11.4 37.3 2.3 6.7 43.3-40 16.6-87 4.4 0.4 15.7 31.4 15.7 31.4 0 0 0-6.7 3.3-5.7 3.4 1 11.7 9.3 8.4 23.3-3.4 14 13 0 3.3 28-9.7 28 20.3-38 12-41.3-8.3-3.3 12.3 11.3 6.7 29.7-5.7 18.3-20 80-84 71.3-9.7 13.7 0 16.3 0 16.3l-36 58.7 9.3-37.3-13.7-0.4 14.7-45.3-39.3 44 12.6-42.7-25 12.4c0 0-0.3-37 12.4-24.7 12.6 12.3 26-7.7 26-7.7l-7.7-6.3c0 0-8.7 2.3-10.7 2.3-2 0-2 0-2 0l21.7-12c0 0 0.7-30 20.7-0.6 4-2.4-20.7-25.4-20.7-25.4l-0.3-45c0 0-34.4-28.6-34.4-38.6 0-10-53.3 49.3-53 62.6 0.4 13.4 5.4 45.4 5.4 45.4z"/>
			<path id="&lt;Path&gt;" class="s2" d="m162.7 258.7l9-22-4.5-7c0 0 1.1-52.4 37.5-67 1 1.3-4.7 11.3-4.7 11.3 0 0 50-5.7 74.3 36.7 0.7 1.6 3.4-7.7 3.4-6.4 0 1.4 6.6 55.4 0 64.4-0.7 6.6 6.6 27.6 6.6 27.6 0 0-17-13-18.6-13.3-1.7-0.3-1.7-43.3-1.7-43.3l-33.7-39.7c0 0-9.3-10.7-16.3-6.7-7 4-51.3 65.4-51.3 65.4z"/>
			<path id="&lt;Path&gt;" class="s1" d="m148.7 325c0 0 3.6 20-16.7 8.7 0 2.6 10.7 52 10.7 52l-41.7-89.4 27.3 10 3-25.6"/>
			<path id="&lt;Path&gt;" class="s1" d="m116 265c0 0-28-12.3-31 10.3-0.3 4-9.7 9-9.7 9l-6.6 9.7c0 0-13 2-12 0 1-2 12.3-33 22.6-20.7 1-1.6 7-15.6 7-15.6 0 0 24-18.7 33.4 0-2.4 0.3-1.7 7-1.7 7"/>
		</g>
	</g>
</svg>